#!OML:ASF E:\emotionWalksFemale\Project 1\Capture day 1\Session 1\Female1.ASF
:FULLY-SPECIFIED
:DEGREES
209
root 8.7042 15.0696 41.4911 180.661 -5.49107 178.623
lowerback 4.14007 0.215809 -0.549029
upperback -5.76135 0.0359303 0.207713
thorax -8.37478 -0.0350079 0.536374
lowerneck -3.95275 4.5433 -1.14285
upperneck -1.72151 5.91548 7.76056
head -0.152514 2.89855 2.70201
rclavicle 7.65321e-015 -1.59028e-015
rhumerus -46.7684 15.0803 -94.331
rradius 38.9167
rwrist 0.0455583
rhand 160.149 -70.6501
rfingers 7.12502
rthumb -173.516 -40.7694
lclavicle 7.65321e-015 -1.59028e-015
lhumerus -47.0546 -1.34399 86.4516
lradius 37.9619
lwrist -16.0293
lhand 2.55869 -26.5514
lfingers 7.12502
lthumb 28.0388 1.37365
rfemur -5.77978 13.3448 23.7506
rtibia 30.9216
rfoot -31.887 -29.2708
rtoes 17.0723
lfemur -7.99564 -23.4408 -26.6262
ltibia 30.9642
lfoot -28.0005 20.5856
ltoes -12.841
210
root 8.69716 15.067 41.4854 180.623 -5.40282 178.584
lowerback 4.06255 0.229004 -0.58088
upperback -5.73495 0.0503703 0.179493
thorax -8.30076 -0.0269185 0.52265
lowerneck -3.7688 4.1245 -1.29605
upperneck -1.98239 5.37218 7.89764
head -0.24753 2.61443 2.76543
rclavicle -1.27719e-014 1.19271e-015
rhumerus -46.5235 14.7363 -94.0457
rradius 38.7904
rwrist 0.570862
rhand 160.375 -70.8488
rfingers 7.12502
rthumb -173.299 -40.9748
lclavicle -1.27719e-014 1.19271e-015
lhumerus -47.1784 -1.69898 86.6509
lradius 38.1858
lwrist -15.5713
lhand 2.83253 -25.8413
lfingers 7.12502
lthumb 28.3005 2.04059
rfemur -5.71796 13.3912 23.6921
rtibia 30.8714
rfoot -31.5648 -29.4339
rtoes 15.6613
lfemur -7.99163 -22.8176 -26.6518
ltibia 31.0046
lfoot -27.9533 20.088
ltoes -14.7754
211
root 8.69 15.0665 41.4851 180.535 -5.42544 178.679
lowerback 4.37354 0.190495 -0.466028
upperback -5.86431 0.00134802 0.200328
thorax -8.62374 -0.0587585 0.487143
lowerneck -3.64052 3.75538 -1.63434
upperneck -1.98099 4.89025 8.24469
head -0.262558 2.37157 2.93999
rclavicle -7.95139e-016 5.56597e-015
rhumerus -46.5744 14.4812 -93.8748
rradius 38.7269
rwrist 0.869137
rhand 160.537 -70.8759
rfingers 7.12502
rthumb -173.141 -41.007
lclavicle -7.95139e-016 5.56597e-015
lhumerus -47.5798 -2.18887 87.0324
lradius 38.2194
lwrist -16.187
lhand 4.88645 -25.9646
lfingers 7.12502
lthumb 30.2617 1.57497
rfemur -5.55937 13.597 23.8285
rtibia 30.7902
rfoot -31.6451 -29.5774
rtoes 15.8318
lfemur -7.89234 -23.2812 -26.6851
ltibia 31.0847
lfoot -28.0358 20.3042
ltoes -13.7926
212
root 8.68268 15.0651 41.4816 180.428 -5.39919 178.77
lowerback 4.43247 0.156539 -0.401907
upperback -5.87852 -0.035486 0.255109
thorax -8.67346 -0.0788869 0.513596
lowerneck -3.4699 3.4632 -2.15461
upperneck -2.0145 4.51892 8.72677
head -0.307134 2.18267 3.19597
rclavicle 1.13307e-014 -8.54774e-015
rhumerus -46.5073 14.309 -93.642
rradius 38.6208
rwrist 1.09151
rhand 160.828 -70.6288
rfingers 7.12502
rthumb -172.861 -40.7692
lclavicle 1.13307e-014 -8.54774e-015
lhumerus -47.8329 -2.69327 87.425
lradius 38.437
lwrist -15.9182
lhand 6.20774 -26.2324
lfingers 7.12502
lthumb 31.5212 1.06843
rfemur -5.36417 13.7732 23.9623
rtibia 30.6922
rfoot -31.7272 -29.8322
rtoes 15.5352
lfemur -7.81644 -23.0882 -26.6503
ltibia 31.1816
lfoot -27.9241 20.2655
ltoes -14.5947
213
root 8.67463 15.0635 41.4776 180.337 -5.29439 178.984
lowerback 4.37158 0.151319 -0.217685
upperback -5.87152 -0.0205658 0.350855
thorax -8.62965 -0.0805364 0.509468
lowerneck -3.27378 3.14386 -2.39107
upperneck -2.06252 4.105 8.86579
head -0.33985 1.97233 3.28332
rclavicle 6.75868e-015 2.18663e-015
rhumerus -46.3425 14.1216 -93.3586
rradius 38.4392
rwrist 1.47261
rhand 161.192 -70.4752
rfingers 7.12502
rthumb -172.509 -40.6279
lclavicle 6.75868e-015 2.18663e-015
lhumerus -47.985 -3.04851 87.767
lradius 38.5018
lwrist -15.703
lhand 5.62523 -26.3985
lfingers 7.12502
lthumb 30.9662 1.00943
rfemur -5.23716 13.7912 24.1913
rtibia 30.6346
rfoot -31.6945 -29.9813
rtoes 14.504
lfemur -7.7307 -23.05 -26.5012
ltibia 31.2465
lfoot -28.019 20.3204
ltoes -14.3742
214
root 8.66534 15.0634 41.4772 180.253 -5.17635 179.1
lowerback 4.58025 0.138097 -0.0707568
upperback -5.97108 -0.0284924 0.39288
thorax -8.86137 -0.0943969 0.474002
lowerneck -3.09079 2.8013 -2.49461
upperneck -2.07423 3.65337 8.88913
head -0.349574 1.74428 3.30715
rclavicle -5.56597e-015 4.96962e-015
rhumerus -46.2711 13.8884 -93.1605
rradius 38.2133
rwrist 2.08566
rhand 161.43 -70.6793
rfingers 7.12502
rthumb -172.28 -40.8402
lclavicle -5.56597e-015 4.96962e-015
lhumerus -48.1498 -3.10031 87.9738
lradius 38.2949
lwrist -16.2565
lhand 6.7356 -26.0028
lfingers 7.12502
lthumb 32.024 1.19836
rfemur -5.15612 13.8619 24.3054
rtibia 30.6416
rfoot -31.6226 -30.0007
rtoes 13.8624
lfemur -7.61461 -23.0337 -26.461
ltibia 31.2368
lfoot -28.1553 20.3736
ltoes -13.1723
